<mxfile host="app.diagrams.net" modified="2024-04-19T21:38:09.522Z" agent="Mozilla/5.0 (Windows NT 10.0; Win64; x64) AppleWebKit/537.36 (KHTML, like Gecko) Chrome/123.0.0.0 Safari/537.36" etag="AL_j9ncisiXHFHzwYgt5" version="24.2.1" type="device">
  <diagram name="PÃ¡gina-1" id="_8DwT4SJB5_f7v6HSdy7">
    <mxGraphModel dx="880" dy="508" grid="1" gridSize="10" guides="1" tooltips="1" connect="1" arrows="1" fold="1" page="1" pageScale="1" pageWidth="827" pageHeight="1169" math="0" shadow="0">
      <root>
        <mxCell id="0" />
        <mxCell id="1" parent="0" />
        <mxCell id="rhTd_yrx27g0zzDZj42L-1" value="&lt;font style=&quot;font-size: 20px;&quot;&gt;&lt;b&gt;SPI MASTER&lt;/b&gt;&lt;/font&gt;" style="whiteSpace=wrap;html=1;aspect=fixed;strokeWidth=3;" vertex="1" parent="1">
          <mxGeometry x="170" y="140" width="160" height="160" as="geometry" />
        </mxCell>
        <mxCell id="rhTd_yrx27g0zzDZj42L-2" value="&lt;font style=&quot;font-size: 20px;&quot;&gt;&lt;b&gt;SPI SLAVE&lt;/b&gt;&lt;/font&gt;" style="whiteSpace=wrap;html=1;aspect=fixed;strokeWidth=3;" vertex="1" parent="1">
          <mxGeometry x="510" y="140" width="160" height="160" as="geometry" />
        </mxCell>
        <mxCell id="rhTd_yrx27g0zzDZj42L-3" value="" style="endArrow=classic;html=1;rounded=0;entryX=0;entryY=0.25;entryDx=0;entryDy=0;strokeWidth=3;" edge="1" parent="1">
          <mxGeometry width="50" height="50" relative="1" as="geometry">
            <mxPoint x="330" y="160" as="sourcePoint" />
            <mxPoint x="510" y="160" as="targetPoint" />
          </mxGeometry>
        </mxCell>
        <mxCell id="rhTd_yrx27g0zzDZj42L-4" value="" style="endArrow=classic;html=1;rounded=0;entryX=0;entryY=0.25;entryDx=0;entryDy=0;strokeWidth=3;" edge="1" parent="1">
          <mxGeometry width="50" height="50" relative="1" as="geometry">
            <mxPoint x="330" y="200" as="sourcePoint" />
            <mxPoint x="510" y="200" as="targetPoint" />
          </mxGeometry>
        </mxCell>
        <mxCell id="rhTd_yrx27g0zzDZj42L-5" value="" style="endArrow=classic;html=1;rounded=0;entryX=1.013;entryY=0.681;entryDx=0;entryDy=0;strokeWidth=3;entryPerimeter=0;" edge="1" parent="1">
          <mxGeometry width="50" height="50" relative="1" as="geometry">
            <mxPoint x="507.92" y="241.04" as="sourcePoint" />
            <mxPoint x="329.99999999999994" y="240.00000000000003" as="targetPoint" />
          </mxGeometry>
        </mxCell>
        <mxCell id="rhTd_yrx27g0zzDZj42L-6" value="" style="endArrow=classic;html=1;rounded=0;entryX=0;entryY=0.25;entryDx=0;entryDy=0;strokeWidth=3;" edge="1" parent="1">
          <mxGeometry width="50" height="50" relative="1" as="geometry">
            <mxPoint x="330" y="280" as="sourcePoint" />
            <mxPoint x="510" y="280" as="targetPoint" />
          </mxGeometry>
        </mxCell>
        <mxCell id="rhTd_yrx27g0zzDZj42L-7" value="MISO" style="text;html=1;align=center;verticalAlign=middle;resizable=0;points=[];autosize=1;strokeColor=none;fillColor=none;fontStyle=1;fontSize=19;" vertex="1" parent="1">
          <mxGeometry x="390" y="210" width="70" height="40" as="geometry" />
        </mxCell>
        <mxCell id="rhTd_yrx27g0zzDZj42L-8" value="MOSI" style="text;html=1;align=center;verticalAlign=middle;resizable=0;points=[];autosize=1;strokeColor=none;fillColor=none;fontStyle=1;fontSize=19;" vertex="1" parent="1">
          <mxGeometry x="390" y="170" width="70" height="40" as="geometry" />
        </mxCell>
        <mxCell id="rhTd_yrx27g0zzDZj42L-10" value="SCLK" style="text;html=1;align=center;verticalAlign=middle;resizable=0;points=[];autosize=1;strokeColor=none;fillColor=none;fontStyle=1;fontSize=19;" vertex="1" parent="1">
          <mxGeometry x="390" y="120" width="70" height="40" as="geometry" />
        </mxCell>
        <mxCell id="rhTd_yrx27g0zzDZj42L-12" value="&lt;div&gt;___&lt;/div&gt;CS" style="text;html=1;align=center;verticalAlign=middle;resizable=0;points=[];autosize=1;strokeColor=none;fillColor=none;fontStyle=1;fontSize=19;" vertex="1" parent="1">
          <mxGeometry x="395" y="227" width="60" height="60" as="geometry" />
        </mxCell>
      </root>
    </mxGraphModel>
  </diagram>
</mxfile>
